  0
SECTION
  2
HEADER
  9
$ACADVER
  1
AC1009
  9
$FILLMODE
 70
 0
  9
$SPLFRAME
 70
 1
  9
$EXTMIN
 10
0
 20
0
 30
0.0
  9
$EXTMAX
 10
1058.33
 20
1058.33
 30
0.0
  0
ENDSEC
  0
SECTION
  2
TABLES
  0
TABLE
  2
LAYER
 70
1
  0
LAYER
  2
0
 70
     0
 62
     7
  6
CONTINUOUS
  0
ENDTAB
  0
ENDSEC
  0
SECTION
  2
ENTITIES
  0
LINE
  8
0
 62
     0
 10
0.0950846
 20
236.619
 30
0.0
 11
428.72
 21
236.619
 31
0.0
  0
LINE
  8
0
 62
     0
 10
428.72
 20
236.619
 30
0.0
 11
428.72
 21
0.334863
 31
0.0
  0
LINE
  8
0
 62
     0
 10
428.72
 20
0.334863
 30
0.0
 11
0.0950846
 21
0.334863
 31
0.0
  0
LINE
  8
0
 62
     0
 10
0.0950846
 20
0.334863
 30
0.0
 11
0.0950846
 21
236.619
 31
0.0
  0
LINE
  8
0
 62
     0
 10
287.88
 20
11.2338
 30
0.0
 11
299.752
 21
3.81579
 31
0.0
  0
LINE
  8
0
 62
     0
 10
299.752
 20
3.81579
 30
0.0
 11
307.172
 21
15.6876
 31
0.0
  0
LINE
  8
0
 62
     0
 10
307.172
 20
15.6876
 30
0.0
 11
295.3
 21
23.1069
 31
0.0
  0
LINE
  8
0
 62
     0
 10
295.3
 20
23.1069
 30
0.0
 11
287.88
 21
11.2338
 31
0.0
  0
LINE
  8
0
 62
     0
 10
288.908
 20
46.0541
 30
0.0
 11
288.128
 21
46.542
 31
0.0
  0
LINE
  8
0
 62
     0
 10
288.128
 20
46.542
 30
0.0
 11
286.38
 21
43.743
 31
0.0
  0
LINE
  8
0
 62
     0
 10
286.38
 20
43.743
 30
0.0
 11
287.161
 21
43.2566
 31
0.0
  0
LINE
  8
0
 62
     0
 10
287.161
 20
43.2566
 30
0.0
 11
286.246
 21
41.7932
 31
0.0
  0
LINE
  8
0
 62
     0
 10
286.246
 20
41.7932
 30
0.0
 11
288.986
 21
40.0816
 31
0.0
  0
LINE
  8
0
 62
     0
 10
288.986
 20
40.0816
 30
0.0
 11
288.178
 21
38.789
 31
0.0
  0
LINE
  8
0
 62
     0
 10
288.178
 20
38.789
 30
0.0
 11
284.191
 21
41.2792
 31
0.0
  0
LINE
  8
0
 62
     0
 10
284.191
 20
41.2792
 30
0.0
 11
276.772
 21
29.406
 31
0.0
  0
LINE
  8
0
 62
     0
 10
276.772
 20
29.406
 30
0.0
 11
280.759
 21
26.9159
 31
0.0
  0
LINE
  8
0
 62
     0
 10
280.759
 20
26.9159
 30
0.0
 11
279.95
 21
25.6219
 31
0.0
  0
LINE
  8
0
 62
     0
 10
279.95
 20
25.6219
 30
0.0
 11
277.21
 21
27.3348
 31
0.0
  0
LINE
  8
0
 62
     0
 10
277.21
 20
27.3348
 30
0.0
 11
276.297
 21
25.8713
 31
0.0
  0
LINE
  8
0
 62
     0
 10
276.297
 20
25.8713
 30
0.0
 11
275.517
 21
26.3577
 31
0.0
  0
LINE
  8
0
 62
     0
 10
275.517
 20
26.3577
 30
0.0
 11
273.768
 21
23.5603
 31
0.0
  0
LINE
  8
0
 62
     0
 10
273.768
 20
23.5603
 30
0.0
 11
274.548
 21
23.0725
 31
0.0
  0
LINE
  8
0
 62
     0
 10
274.548
 20
23.0725
 30
0.0
 11
273.633
 21
21.6104
 31
0.0
  0
LINE
  8
0
 62
     0
 10
273.633
 20
21.6104
 30
0.0
 11
276.374
 21
19.8989
 31
0.0
  0
LINE
  8
0
 62
     0
 10
276.374
 20
19.8989
 30
0.0
 11
275.936
 21
19.1988
 31
0.0
  0
LINE
  8
0
 62
     0
 10
275.936
 20
19.1988
 30
0.0
 11
278.31
 21
17.7147
 31
0.0
  0
LINE
  8
0
 62
     0
 10
278.31
 20
17.7147
 30
0.0
 11
278.747
 21
18.4147
 31
0.0
  0
LINE
  8
0
 62
     0
 10
278.747
 20
18.4147
 30
0.0
 11
284.065
 21
15.0909
 31
0.0
  0
LINE
  8
0
 62
     0
 10
284.065
 20
15.0909
 30
0.0
 11
284.98
 21
16.5544
 31
0.0
  0
LINE
  8
0
 62
     0
 10
284.98
 20
16.5544
 30
0.0
 11
285.811
 21
16.0348
 31
0.0
  0
LINE
  8
0
 62
     0
 10
285.811
 20
16.0348
 30
0.0
 11
287.558
 21
18.835
 31
0.0
  0
LINE
  8
0
 62
     0
 10
287.558
 20
18.835
 30
0.0
 11
286.727
 21
19.3532
 31
0.0
  0
LINE
  8
0
 62
     0
 10
286.727
 20
19.3532
 30
0.0
 11
287.642
 21
20.8166
 31
0.0
  0
LINE
  8
0
 62
     0
 10
287.642
 20
20.8166
 30
0.0
 11
283.851
 21
23.1855
 31
0.0
  0
LINE
  8
0
 62
     0
 10
283.851
 20
23.1855
 30
0.0
 11
284.66
 21
24.4781
 31
0.0
  0
LINE
  8
0
 62
     0
 10
284.66
 20
24.4781
 30
0.0
 11
288.645
 21
21.988
 31
0.0
  0
LINE
  8
0
 62
     0
 10
288.645
 20
21.988
 30
0.0
 11
296.063
 21
33.8598
 31
0.0
  0
LINE
  8
0
 62
     0
 10
296.063
 20
33.8598
 30
0.0
 11
292.078
 21
36.3499
 31
0.0
  0
LINE
  8
0
 62
     0
 10
292.078
 20
36.3499
 30
0.0
 11
292.887
 21
37.6439
 31
0.0
  0
LINE
  8
0
 62
     0
 10
292.887
 20
37.6439
 30
0.0
 11
296.678
 21
35.275
 31
0.0
  0
LINE
  8
0
 62
     0
 10
296.678
 20
35.275
 30
0.0
 11
297.591
 21
36.7386
 31
0.0
  0
LINE
  8
0
 62
     0
 10
297.591
 20
36.7386
 30
0.0
 11
298.422
 21
36.219
 31
0.0
  0
LINE
  8
0
 62
     0
 10
298.422
 20
36.219
 30
0.0
 11
300.171
 21
39.0179
 31
0.0
  0
LINE
  8
0
 62
     0
 10
300.171
 20
39.0179
 30
0.0
 11
299.339
 21
39.5358
 31
0.0
  0
LINE
  8
0
 62
     0
 10
299.339
 20
39.5358
 30
0.0
 11
300.254
 21
40.9995
 31
0.0
  0
LINE
  8
0
 62
     0
 10
300.254
 20
40.9995
 30
0.0
 11
294.936
 21
44.3219
 31
0.0
  0
LINE
  8
0
 62
     0
 10
294.936
 20
44.3219
 30
0.0
 11
295.373
 21
45.0219
 31
0.0
  0
LINE
  8
0
 62
     0
 10
295.373
 20
45.0219
 30
0.0
 11
293
 21
46.506
 31
0.0
  0
LINE
  8
0
 62
     0
 10
293
 20
46.506
 30
0.0
 11
292.563
 21
45.8061
 31
0.0
  0
LINE
  8
0
 62
     0
 10
292.563
 20
45.8061
 30
0.0
 11
289.822
 21
47.5174
 31
0.0
  0
LINE
  8
0
 62
     0
 10
289.822
 20
47.5174
 30
0.0
 11
288.908
 21
46.0541
 31
0.0
  0
LINE
  8
0
 62
     0
 10
297.976
 20
27.3899
 30
0.0
 11
309.848
 21
19.9705
 31
0.0
  0
LINE
  8
0
 62
     0
 10
309.848
 20
19.9705
 30
0.0
 11
317.267
 21
31.8437
 31
0.0
  0
LINE
  8
0
 62
     0
 10
317.267
 20
31.8437
 30
0.0
 11
305.394
 21
39.2617
 31
0.0
  0
LINE
  8
0
 62
     0
 10
305.394
 20
39.2617
 30
0.0
 11
297.976
 21
27.3899
 31
0.0
  0
LINE
  8
0
 62
     0
 10
272.754
 20
56.1495
 30
0.0
 11
271.974
 21
56.6374
 31
0.0
  0
LINE
  8
0
 62
     0
 10
271.974
 20
56.6374
 30
0.0
 11
270.225
 21
53.8385
 31
0.0
  0
LINE
  8
0
 62
     0
 10
270.225
 20
53.8385
 30
0.0
 11
271.005
 21
53.3506
 31
0.0
  0
LINE
  8
0
 62
     0
 10
271.005
 20
53.3506
 30
0.0
 11
270.09
 21
51.8887
 31
0.0
  0
LINE
  8
0
 62
     0
 10
270.09
 20
51.8887
 30
0.0
 11
272.83
 21
50.1756
 31
0.0
  0
LINE
  8
0
 62
     0
 10
272.83
 20
50.1756
 30
0.0
 11
272.022
 21
48.883
 31
0.0
  0
LINE
  8
0
 62
     0
 10
272.022
 20
48.883
 30
0.0
 11
268.035
 21
51.3747
 31
0.0
  0
LINE
  8
0
 62
     0
 10
268.035
 20
51.3747
 30
0.0
 11
260.617
 21
39.5016
 31
0.0
  0
LINE
  8
0
 62
     0
 10
260.617
 20
39.5016
 30
0.0
 11
264.603
 21
37.0113
 31
0.0
  0
LINE
  8
0
 62
     0
 10
264.603
 20
37.0113
 30
0.0
 11
263.795
 21
35.7173
 31
0.0
  0
LINE
  8
0
 62
     0
 10
263.795
 20
35.7173
 30
0.0
 11
261.056
 21
37.429
 31
0.0
  0
LINE
  8
0
 62
     0
 10
261.056
 20
37.429
 30
0.0
 11
260.142
 21
35.9668
 31
0.0
  0
LINE
  8
0
 62
     0
 10
260.142
 20
35.9668
 30
0.0
 11
259.362
 21
36.4532
 31
0.0
  0
LINE
  8
0
 62
     0
 10
259.362
 20
36.4532
 30
0.0
 11
257.612
 21
33.6558
 31
0.0
  0
LINE
  8
0
 62
     0
 10
257.612
 20
33.6558
 30
0.0
 11
258.392
 21
33.168
 31
0.0
  0
LINE
  8
0
 62
     0
 10
258.392
 20
33.168
 30
0.0
 11
257.478
 21
31.7045
 31
0.0
  0
LINE
  8
0
 62
     0
 10
257.478
 20
31.7045
 30
0.0
 11
260.218
 21
29.993
 31
0.0
  0
LINE
  8
0
 62
     0
 10
260.218
 20
29.993
 30
0.0
 11
259.781
 21
29.293
 31
0.0
  0
LINE
  8
0
 62
     0
 10
259.781
 20
29.293
 30
0.0
 11
262.155
 21
27.8088
 31
0.0
  0
LINE
  8
0
 62
     0
 10
262.155
 20
27.8088
 30
0.0
 11
262.592
 21
28.5089
 31
0.0
  0
LINE
  8
0
 62
     0
 10
262.592
 20
28.5089
 30
0.0
 11
267.91
 21
25.1864
 31
0.0
  0
LINE
  8
0
 62
     0
 10
267.91
 20
25.1864
 30
0.0
 11
268.824
 21
26.6499
 31
0.0
  0
LINE
  8
0
 62
     0
 10
268.824
 20
26.6499
 30
0.0
 11
269.655
 21
26.1304
 31
0.0
  0
LINE
  8
0
 62
     0
 10
269.655
 20
26.1304
 30
0.0
 11
271.403
 21
28.9292
 31
0.0
  0
LINE
  8
0
 62
     0
 10
271.403
 20
28.9292
 30
0.0
 11
270.572
 21
29.4487
 31
0.0
  0
LINE
  8
0
 62
     0
 10
270.572
 20
29.4487
 30
0.0
 11
271.486
 21
30.9108
 31
0.0
  0
LINE
  8
0
 62
     0
 10
271.486
 20
30.9108
 30
0.0
 11
267.695
 21
33.281
 31
0.0
  0
LINE
  8
0
 62
     0
 10
267.695
 20
33.281
 30
0.0
 11
268.504
 21
34.5736
 31
0.0
  0
LINE
  8
0
 62
     0
 10
268.504
 20
34.5736
 30
0.0
 11
272.489
 21
32.0821
 31
0.0
  0
LINE
  8
0
 62
     0
 10
272.489
 20
32.0821
 30
0.0
 11
279.908
 21
43.9554
 31
0.0
  0
LINE
  8
0
 62
     0
 10
279.908
 20
43.9554
 30
0.0
 11
275.922
 21
46.4467
 31
0.0
  0
LINE
  8
0
 62
     0
 10
275.922
 20
46.4467
 30
0.0
 11
276.731
 21
47.7393
 31
0.0
  0
LINE
  8
0
 62
     0
 10
276.731
 20
47.7393
 30
0.0
 11
280.522
 21
45.3704
 31
0.0
  0
LINE
  8
0
 62
     0
 10
280.522
 20
45.3704
 30
0.0
 11
281.436
 21
46.8341
 31
0.0
  0
LINE
  8
0
 62
     0
 10
281.436
 20
46.8341
 30
0.0
 11
282.266
 21
46.3144
 31
0.0
  0
LINE
  8
0
 62
     0
 10
282.266
 20
46.3144
 30
0.0
 11
284.015
 21
49.112
 31
0.0
  0
LINE
  8
0
 62
     0
 10
284.015
 20
49.112
 30
0.0
 11
283.184
 21
49.6316
 31
0.0
  0
LINE
  8
0
 62
     0
 10
283.184
 20
49.6316
 30
0.0
 11
284.099
 21
51.0949
 31
0.0
  0
LINE
  8
0
 62
     0
 10
284.099
 20
51.0949
 30
0.0
 11
278.781
 21
54.4174
 31
0.0
  0
LINE
  8
0
 62
     0
 10
278.781
 20
54.4174
 30
0.0
 11
279.218
 21
55.1173
 31
0.0
  0
LINE
  8
0
 62
     0
 10
279.218
 20
55.1173
 30
0.0
 11
276.845
 21
56.6
 31
0.0
  0
LINE
  8
0
 62
     0
 10
276.845
 20
56.6
 30
0.0
 11
276.407
 21
55.9015
 31
0.0
  0
LINE
  8
0
 62
     0
 10
276.407
 20
55.9015
 30
0.0
 11
273.667
 21
57.6132
 31
0.0
  0
LINE
  8
0
 62
     0
 10
273.667
 20
57.6132
 30
0.0
 11
272.754
 21
56.1495
 31
0.0
  0
LINE
  8
0
 62
     0
 10
308.07
 20
43.5448
 30
0.0
 11
319.942
 21
36.1252
 31
0.0
  0
LINE
  8
0
 62
     0
 10
319.942
 20
36.1252
 30
0.0
 11
327.361
 21
47.9986
 31
0.0
  0
LINE
  8
0
 62
     0
 10
327.361
 20
47.9986
 30
0.0
 11
315.49
 21
55.4179
 31
0.0
  0
LINE
  8
0
 62
     0
 10
315.49
 20
55.4179
 30
0.0
 11
308.07
 21
43.5448
 31
0.0
  0
LINE
  8
0
 62
     0
 10
221.695
 20
62.6442
 30
0.0
 11
235.694
 21
62.6442
 31
0.0
  0
LINE
  8
0
 62
     0
 10
235.694
 20
62.6442
 30
0.0
 11
235.694
 21
48.6449
 31
0.0
  0
LINE
  8
0
 62
     0
 10
235.694
 20
48.6449
 30
0.0
 11
221.695
 21
48.6449
 31
0.0
  0
LINE
  8
0
 62
     0
 10
221.695
 20
48.6449
 30
0.0
 11
221.695
 21
62.6442
 31
0.0
  0
LINE
  8
0
 62
     0
 10
240.745
 20
62.6442
 30
0.0
 11
254.744
 21
62.6442
 31
0.0
  0
LINE
  8
0
 62
     0
 10
254.744
 20
62.6442
 30
0.0
 11
254.744
 21
48.6449
 31
0.0
  0
LINE
  8
0
 62
     0
 10
254.744
 20
48.6449
 30
0.0
 11
240.745
 21
48.6449
 31
0.0
  0
LINE
  8
0
 62
     0
 10
240.745
 20
48.6449
 30
0.0
 11
240.745
 21
62.6442
 31
0.0
  0
LINE
  8
0
 62
     0
 10
202.645
 20
64.5502
 30
0.0
 11
216.644
 21
64.5502
 31
0.0
  0
LINE
  8
0
 62
     0
 10
216.644
 20
64.5502
 30
0.0
 11
216.644
 21
50.5492
 31
0.0
  0
LINE
  8
0
 62
     0
 10
216.644
 20
50.5492
 30
0.0
 11
202.645
 21
50.5492
 31
0.0
  0
LINE
  8
0
 62
     0
 10
202.645
 20
50.5492
 30
0.0
 11
202.645
 21
64.5502
 31
0.0
  0
LINE
  8
0
 62
     0
 10
183.595
 20
67.4067
 30
0.0
 11
197.594
 21
67.4067
 31
0.0
  0
LINE
  8
0
 62
     0
 10
197.594
 20
67.4067
 30
0.0
 11
197.594
 21
53.4074
 31
0.0
  0
LINE
  8
0
 62
     0
 10
197.594
 20
53.4074
 30
0.0
 11
183.595
 21
53.4074
 31
0.0
  0
LINE
  8
0
 62
     0
 10
183.595
 20
53.4074
 30
0.0
 11
183.595
 21
67.4067
 31
0.0
  0
LINE
  8
0
 62
     0
 10
159.782
 20
72.1692
 30
0.0
 11
173.782
 21
72.1692
 31
0.0
  0
LINE
  8
0
 62
     0
 10
173.782
 20
72.1692
 30
0.0
 11
173.782
 21
58.1699
 31
0.0
  0
LINE
  8
0
 62
     0
 10
173.782
 20
58.1699
 30
0.0
 11
159.782
 21
58.1699
 31
0.0
  0
LINE
  8
0
 62
     0
 10
159.782
 20
58.1699
 30
0.0
 11
159.782
 21
72.1692
 31
0.0
  0
LINE
  8
0
 62
     0
 10
221.695
 20
81.6942
 30
0.0
 11
235.694
 21
81.6942
 31
0.0
  0
LINE
  8
0
 62
     0
 10
235.694
 20
81.6942
 30
0.0
 11
235.694
 21
67.6949
 31
0.0
  0
LINE
  8
0
 62
     0
 10
235.694
 20
67.6949
 30
0.0
 11
221.695
 21
67.6949
 31
0.0
  0
LINE
  8
0
 62
     0
 10
221.695
 20
67.6949
 30
0.0
 11
221.695
 21
81.6942
 31
0.0
  0
LINE
  8
0
 62
     0
 10
240.745
 20
81.6942
 30
0.0
 11
254.744
 21
81.6942
 31
0.0
  0
LINE
  8
0
 62
     0
 10
254.744
 20
81.6942
 30
0.0
 11
254.744
 21
67.6949
 31
0.0
  0
LINE
  8
0
 62
     0
 10
254.744
 20
67.6949
 30
0.0
 11
240.745
 21
67.6949
 31
0.0
  0
LINE
  8
0
 62
     0
 10
240.745
 20
67.6949
 30
0.0
 11
240.745
 21
81.6942
 31
0.0
  0
LINE
  8
0
 62
     0
 10
259.795
 20
81.6942
 30
0.0
 11
273.794
 21
81.6942
 31
0.0
  0
LINE
  8
0
 62
     0
 10
273.794
 20
81.6942
 30
0.0
 11
273.794
 21
67.6949
 31
0.0
  0
LINE
  8
0
 62
     0
 10
273.794
 20
67.6949
 30
0.0
 11
259.795
 21
67.6949
 31
0.0
  0
LINE
  8
0
 62
     0
 10
259.795
 20
67.6949
 30
0.0
 11
259.795
 21
81.6942
 31
0.0
  0
LINE
  8
0
 62
     0
 10
278.845
 20
81.6942
 30
0.0
 11
292.844
 21
81.6942
 31
0.0
  0
LINE
  8
0
 62
     0
 10
292.844
 20
81.6942
 30
0.0
 11
292.844
 21
67.6949
 31
0.0
  0
LINE
  8
0
 62
     0
 10
292.844
 20
67.6949
 30
0.0
 11
278.845
 21
67.6949
 31
0.0
  0
LINE
  8
0
 62
     0
 10
278.845
 20
67.6949
 30
0.0
 11
278.845
 21
81.6942
 31
0.0
  0
LINE
  8
0
 62
     0
 10
297.895
 20
81.6942
 30
0.0
 11
311.894
 21
81.6942
 31
0.0
  0
LINE
  8
0
 62
     0
 10
311.894
 20
81.6942
 30
0.0
 11
311.894
 21
67.6949
 31
0.0
  0
LINE
  8
0
 62
     0
 10
311.894
 20
67.6949
 30
0.0
 11
297.895
 21
67.6949
 31
0.0
  0
LINE
  8
0
 62
     0
 10
297.895
 20
67.6949
 30
0.0
 11
297.895
 21
81.6942
 31
0.0
  0
LINE
  8
0
 62
     0
 10
316.945
 20
81.6942
 30
0.0
 11
330.944
 21
81.6942
 31
0.0
  0
LINE
  8
0
 62
     0
 10
330.944
 20
81.6942
 30
0.0
 11
330.944
 21
67.6949
 31
0.0
  0
LINE
  8
0
 62
     0
 10
330.944
 20
67.6949
 30
0.0
 11
316.945
 21
67.6949
 31
0.0
  0
LINE
  8
0
 62
     0
 10
316.945
 20
67.6949
 30
0.0
 11
316.945
 21
81.6942
 31
0.0
  0
LINE
  8
0
 62
     0
 10
335.995
 20
81.6942
 30
0.0
 11
349.994
 21
81.6942
 31
0.0
  0
LINE
  8
0
 62
     0
 10
349.994
 20
81.6942
 30
0.0
 11
349.994
 21
67.6949
 31
0.0
  0
LINE
  8
0
 62
     0
 10
349.994
 20
67.6949
 30
0.0
 11
335.995
 21
67.6949
 31
0.0
  0
LINE
  8
0
 62
     0
 10
335.995
 20
67.6949
 30
0.0
 11
335.995
 21
81.6942
 31
0.0
  0
LINE
  8
0
 62
     0
 10
355.046
 20
81.6942
 30
0.0
 11
369.044
 21
81.6942
 31
0.0
  0
LINE
  8
0
 62
     0
 10
369.044
 20
81.6942
 30
0.0
 11
369.044
 21
67.6949
 31
0.0
  0
LINE
  8
0
 62
     0
 10
369.044
 20
67.6949
 30
0.0
 11
355.046
 21
67.6949
 31
0.0
  0
LINE
  8
0
 62
     0
 10
355.046
 20
67.6949
 30
0.0
 11
355.046
 21
81.6942
 31
0.0
  0
LINE
  8
0
 62
     0
 10
374.096
 20
81.6942
 30
0.0
 11
388.094
 21
81.6942
 31
0.0
  0
LINE
  8
0
 62
     0
 10
388.094
 20
81.6942
 30
0.0
 11
388.094
 21
67.6949
 31
0.0
  0
LINE
  8
0
 62
     0
 10
388.094
 20
67.6949
 30
0.0
 11
374.096
 21
67.6949
 31
0.0
  0
LINE
  8
0
 62
     0
 10
374.096
 20
67.6949
 30
0.0
 11
374.096
 21
81.6942
 31
0.0
  0
LINE
  8
0
 62
     0
 10
393.146
 20
81.6942
 30
0.0
 11
407.144
 21
81.6942
 31
0.0
  0
LINE
  8
0
 62
     0
 10
407.144
 20
81.6942
 30
0.0
 11
407.144
 21
67.6949
 31
0.0
  0
LINE
  8
0
 62
     0
 10
407.144
 20
67.6949
 30
0.0
 11
393.146
 21
67.6949
 31
0.0
  0
LINE
  8
0
 62
     0
 10
393.146
 20
67.6949
 30
0.0
 11
393.146
 21
81.6942
 31
0.0
  0
LINE
  8
0
 62
     0
 10
412.196
 20
81.6942
 30
0.0
 11
426.194
 21
81.6942
 31
0.0
  0
LINE
  8
0
 62
     0
 10
426.194
 20
81.6942
 30
0.0
 11
426.194
 21
67.6949
 31
0.0
  0
LINE
  8
0
 62
     0
 10
426.194
 20
67.6949
 30
0.0
 11
412.196
 21
67.6949
 31
0.0
  0
LINE
  8
0
 62
     0
 10
412.196
 20
67.6949
 30
0.0
 11
412.196
 21
81.6942
 31
0.0
  0
LINE
  8
0
 62
     0
 10
202.645
 20
83.6002
 30
0.0
 11
216.644
 21
83.6002
 31
0.0
  0
LINE
  8
0
 62
     0
 10
216.644
 20
83.6002
 30
0.0
 11
216.644
 21
69.5992
 31
0.0
  0
LINE
  8
0
 62
     0
 10
216.644
 20
69.5992
 30
0.0
 11
202.645
 21
69.5992
 31
0.0
  0
LINE
  8
0
 62
     0
 10
202.645
 20
69.5992
 30
0.0
 11
202.645
 21
83.6002
 31
0.0
  0
LINE
  8
0
 62
     0
 10
183.595
 20
86.4567
 30
0.0
 11
197.594
 21
86.4567
 31
0.0
  0
LINE
  8
0
 62
     0
 10
197.594
 20
86.4567
 30
0.0
 11
197.594
 21
72.4574
 31
0.0
  0
LINE
  8
0
 62
     0
 10
197.594
 20
72.4574
 30
0.0
 11
183.595
 21
72.4574
 31
0.0
  0
LINE
  8
0
 62
     0
 10
183.595
 20
72.4574
 30
0.0
 11
183.595
 21
86.4567
 31
0.0
  0
LINE
  8
0
 62
     0
 10
159.782
 20
91.2192
 30
0.0
 11
173.782
 21
91.2192
 31
0.0
  0
LINE
  8
0
 62
     0
 10
173.782
 20
91.2192
 30
0.0
 11
173.782
 21
77.2199
 31
0.0
  0
LINE
  8
0
 62
     0
 10
173.782
 20
77.2199
 30
0.0
 11
159.782
 21
77.2199
 31
0.0
  0
LINE
  8
0
 62
     0
 10
159.782
 20
77.2199
 30
0.0
 11
159.782
 21
91.2192
 31
0.0
  0
LINE
  8
0
 62
     0
 10
221.695
 20
100.744
 30
0.0
 11
235.694
 21
100.744
 31
0.0
  0
LINE
  8
0
 62
     0
 10
235.694
 20
100.744
 30
0.0
 11
235.694
 21
86.7449
 31
0.0
  0
LINE
  8
0
 62
     0
 10
235.694
 20
86.7449
 30
0.0
 11
221.695
 21
86.7449
 31
0.0
  0
LINE
  8
0
 62
     0
 10
221.695
 20
86.7449
 30
0.0
 11
221.695
 21
100.744
 31
0.0
  0
LINE
  8
0
 62
     0
 10
240.745
 20
100.744
 30
0.0
 11
254.744
 21
100.744
 31
0.0
  0
LINE
  8
0
 62
     0
 10
254.744
 20
100.744
 30
0.0
 11
254.744
 21
86.7449
 31
0.0
  0
LINE
  8
0
 62
     0
 10
254.744
 20
86.7449
 30
0.0
 11
240.745
 21
86.7449
 31
0.0
  0
LINE
  8
0
 62
     0
 10
240.745
 20
86.7449
 30
0.0
 11
240.745
 21
100.744
 31
0.0
  0
LINE
  8
0
 62
     0
 10
259.795
 20
100.744
 30
0.0
 11
273.794
 21
100.744
 31
0.0
  0
LINE
  8
0
 62
     0
 10
273.794
 20
100.744
 30
0.0
 11
273.794
 21
86.7449
 31
0.0
  0
LINE
  8
0
 62
     0
 10
273.794
 20
86.7449
 30
0.0
 11
259.795
 21
86.7449
 31
0.0
  0
LINE
  8
0
 62
     0
 10
259.795
 20
86.7449
 30
0.0
 11
259.795
 21
100.744
 31
0.0
  0
LINE
  8
0
 62
     0
 10
278.845
 20
100.744
 30
0.0
 11
292.844
 21
100.744
 31
0.0
  0
LINE
  8
0
 62
     0
 10
292.844
 20
100.744
 30
0.0
 11
292.844
 21
86.7449
 31
0.0
  0
LINE
  8
0
 62
     0
 10
292.844
 20
86.7449
 30
0.0
 11
278.845
 21
86.7449
 31
0.0
  0
LINE
  8
0
 62
     0
 10
278.845
 20
86.7449
 30
0.0
 11
278.845
 21
100.744
 31
0.0
  0
LINE
  8
0
 62
     0
 10
297.895
 20
100.744
 30
0.0
 11
311.894
 21
100.744
 31
0.0
  0
LINE
  8
0
 62
     0
 10
311.894
 20
100.744
 30
0.0
 11
311.894
 21
86.7449
 31
0.0
  0
LINE
  8
0
 62
     0
 10
311.894
 20
86.7449
 30
0.0
 11
297.895
 21
86.7449
 31
0.0
  0
LINE
  8
0
 62
     0
 10
297.895
 20
86.7449
 30
0.0
 11
297.895
 21
100.744
 31
0.0
  0
LINE
  8
0
 62
     0
 10
316.945
 20
100.744
 30
0.0
 11
330.944
 21
100.744
 31
0.0
  0
LINE
  8
0
 62
     0
 10
330.944
 20
100.744
 30
0.0
 11
330.944
 21
86.7449
 31
0.0
  0
LINE
  8
0
 62
     0
 10
330.944
 20
86.7449
 30
0.0
 11
316.945
 21
86.7449
 31
0.0
  0
LINE
  8
0
 62
     0
 10
316.945
 20
86.7449
 30
0.0
 11
316.945
 21
100.744
 31
0.0
  0
LINE
  8
0
 62
     0
 10
335.995
 20
100.744
 30
0.0
 11
349.994
 21
100.744
 31
0.0
  0
LINE
  8
0
 62
     0
 10
349.994
 20
100.744
 30
0.0
 11
349.994
 21
86.7449
 31
0.0
  0
LINE
  8
0
 62
     0
 10
349.994
 20
86.7449
 30
0.0
 11
335.995
 21
86.7449
 31
0.0
  0
LINE
  8
0
 62
     0
 10
335.995
 20
86.7449
 30
0.0
 11
335.995
 21
100.744
 31
0.0
  0
LINE
  8
0
 62
     0
 10
355.046
 20
100.744
 30
0.0
 11
369.044
 21
100.744
 31
0.0
  0
LINE
  8
0
 62
     0
 10
369.044
 20
100.744
 30
0.0
 11
369.044
 21
86.7449
 31
0.0
  0
LINE
  8
0
 62
     0
 10
369.044
 20
86.7449
 30
0.0
 11
355.046
 21
86.7449
 31
0.0
  0
LINE
  8
0
 62
     0
 10
355.046
 20
86.7449
 30
0.0
 11
355.046
 21
100.744
 31
0.0
  0
LINE
  8
0
 62
     0
 10
374.096
 20
100.744
 30
0.0
 11
388.094
 21
100.744
 31
0.0
  0
LINE
  8
0
 62
     0
 10
388.094
 20
100.744
 30
0.0
 11
388.094
 21
86.7449
 31
0.0
  0
LINE
  8
0
 62
     0
 10
388.094
 20
86.7449
 30
0.0
 11
374.096
 21
86.7449
 31
0.0
  0
LINE
  8
0
 62
     0
 10
374.096
 20
86.7449
 30
0.0
 11
374.096
 21
100.744
 31
0.0
  0
LINE
  8
0
 62
     0
 10
393.146
 20
100.744
 30
0.0
 11
407.144
 21
100.744
 31
0.0
  0
LINE
  8
0
 62
     0
 10
407.144
 20
100.744
 30
0.0
 11
407.144
 21
86.7449
 31
0.0
  0
LINE
  8
0
 62
     0
 10
407.144
 20
86.7449
 30
0.0
 11
393.146
 21
86.7449
 31
0.0
  0
LINE
  8
0
 62
     0
 10
393.146
 20
86.7449
 30
0.0
 11
393.146
 21
100.744
 31
0.0
  0
LINE
  8
0
 62
     0
 10
412.196
 20
100.744
 30
0.0
 11
426.194
 21
100.744
 31
0.0
  0
LINE
  8
0
 62
     0
 10
426.194
 20
100.744
 30
0.0
 11
426.194
 21
86.7449
 31
0.0
  0
LINE
  8
0
 62
     0
 10
426.194
 20
86.7449
 30
0.0
 11
412.196
 21
86.7449
 31
0.0
  0
LINE
  8
0
 62
     0
 10
412.196
 20
86.7449
 30
0.0
 11
412.196
 21
100.744
 31
0.0
  0
LINE
  8
0
 62
     0
 10
202.645
 20
102.65
 30
0.0
 11
216.644
 21
102.65
 31
0.0
  0
LINE
  8
0
 62
     0
 10
216.644
 20
102.65
 30
0.0
 11
216.644
 21
88.6492
 31
0.0
  0
LINE
  8
0
 62
     0
 10
216.644
 20
88.6492
 30
0.0
 11
202.645
 21
88.6492
 31
0.0
  0
LINE
  8
0
 62
     0
 10
202.645
 20
88.6492
 30
0.0
 11
202.645
 21
102.65
 31
0.0
  0
LINE
  8
0
 62
     0
 10
183.595
 20
105.507
 30
0.0
 11
197.594
 21
105.507
 31
0.0
  0
LINE
  8
0
 62
     0
 10
197.594
 20
105.507
 30
0.0
 11
197.594
 21
91.5074
 31
0.0
  0
LINE
  8
0
 62
     0
 10
197.594
 20
91.5074
 30
0.0
 11
183.595
 21
91.5074
 31
0.0
  0
LINE
  8
0
 62
     0
 10
183.595
 20
91.5074
 30
0.0
 11
183.595
 21
105.507
 31
0.0
  0
LINE
  8
0
 62
     0
 10
159.782
 20
110.269
 30
0.0
 11
173.782
 21
110.269
 31
0.0
  0
LINE
  8
0
 62
     0
 10
173.782
 20
110.269
 30
0.0
 11
173.782
 21
96.2699
 31
0.0
  0
LINE
  8
0
 62
     0
 10
173.782
 20
96.2699
 30
0.0
 11
159.782
 21
96.2699
 31
0.0
  0
LINE
  8
0
 62
     0
 10
159.782
 20
96.2699
 30
0.0
 11
159.782
 21
110.269
 31
0.0
  0
LINE
  8
0
 62
     0
 10
221.695
 20
119.794
 30
0.0
 11
235.694
 21
119.794
 31
0.0
  0
LINE
  8
0
 62
     0
 10
235.694
 20
119.794
 30
0.0
 11
235.694
 21
105.795
 31
0.0
  0
LINE
  8
0
 62
     0
 10
235.694
 20
105.795
 30
0.0
 11
221.695
 21
105.795
 31
0.0
  0
LINE
  8
0
 62
     0
 10
221.695
 20
105.795
 30
0.0
 11
221.695
 21
119.794
 31
0.0
  0
LINE
  8
0
 62
     0
 10
240.745
 20
119.794
 30
0.0
 11
254.744
 21
119.794
 31
0.0
  0
LINE
  8
0
 62
     0
 10
254.744
 20
119.794
 30
0.0
 11
254.744
 21
105.795
 31
0.0
  0
LINE
  8
0
 62
     0
 10
254.744
 20
105.795
 30
0.0
 11
240.745
 21
105.795
 31
0.0
  0
LINE
  8
0
 62
     0
 10
240.745
 20
105.795
 30
0.0
 11
240.745
 21
119.794
 31
0.0
  0
LINE
  8
0
 62
     0
 10
259.795
 20
119.794
 30
0.0
 11
273.794
 21
119.794
 31
0.0
  0
LINE
  8
0
 62
     0
 10
273.794
 20
119.794
 30
0.0
 11
273.794
 21
105.795
 31
0.0
  0
LINE
  8
0
 62
     0
 10
273.794
 20
105.795
 30
0.0
 11
259.795
 21
105.795
 31
0.0
  0
LINE
  8
0
 62
     0
 10
259.795
 20
105.795
 30
0.0
 11
259.795
 21
119.794
 31
0.0
  0
LINE
  8
0
 62
     0
 10
278.845
 20
119.794
 30
0.0
 11
292.844
 21
119.794
 31
0.0
  0
LINE
  8
0
 62
     0
 10
292.844
 20
119.794
 30
0.0
 11
292.844
 21
105.795
 31
0.0
  0
LINE
  8
0
 62
     0
 10
292.844
 20
105.795
 30
0.0
 11
278.845
 21
105.795
 31
0.0
  0
LINE
  8
0
 62
     0
 10
278.845
 20
105.795
 30
0.0
 11
278.845
 21
119.794
 31
0.0
  0
LINE
  8
0
 62
     0
 10
297.895
 20
119.794
 30
0.0
 11
311.894
 21
119.794
 31
0.0
  0
LINE
  8
0
 62
     0
 10
311.894
 20
119.794
 30
0.0
 11
311.894
 21
105.795
 31
0.0
  0
LINE
  8
0
 62
     0
 10
311.894
 20
105.795
 30
0.0
 11
297.895
 21
105.795
 31
0.0
  0
LINE
  8
0
 62
     0
 10
297.895
 20
105.795
 30
0.0
 11
297.895
 21
119.794
 31
0.0
  0
LINE
  8
0
 62
     0
 10
316.945
 20
119.794
 30
0.0
 11
330.944
 21
119.794
 31
0.0
  0
LINE
  8
0
 62
     0
 10
330.944
 20
119.794
 30
0.0
 11
330.944
 21
105.795
 31
0.0
  0
LINE
  8
0
 62
     0
 10
330.944
 20
105.795
 30
0.0
 11
316.945
 21
105.795
 31
0.0
  0
LINE
  8
0
 62
     0
 10
316.945
 20
105.795
 30
0.0
 11
316.945
 21
119.794
 31
0.0
  0
LINE
  8
0
 62
     0
 10
335.995
 20
119.794
 30
0.0
 11
349.994
 21
119.794
 31
0.0
  0
LINE
  8
0
 62
     0
 10
349.994
 20
119.794
 30
0.0
 11
349.994
 21
105.795
 31
0.0
  0
LINE
  8
0
 62
     0
 10
349.994
 20
105.795
 30
0.0
 11
335.995
 21
105.795
 31
0.0
  0
LINE
  8
0
 62
     0
 10
335.995
 20
105.795
 30
0.0
 11
335.995
 21
119.794
 31
0.0
  0
LINE
  8
0
 62
     0
 10
355.046
 20
119.794
 30
0.0
 11
369.044
 21
119.794
 31
0.0
  0
LINE
  8
0
 62
     0
 10
369.044
 20
119.794
 30
0.0
 11
369.044
 21
105.795
 31
0.0
  0
LINE
  8
0
 62
     0
 10
369.044
 20
105.795
 30
0.0
 11
355.046
 21
105.795
 31
0.0
  0
LINE
  8
0
 62
     0
 10
355.046
 20
105.795
 30
0.0
 11
355.046
 21
119.794
 31
0.0
  0
LINE
  8
0
 62
     0
 10
374.096
 20
119.794
 30
0.0
 11
388.094
 21
119.794
 31
0.0
  0
LINE
  8
0
 62
     0
 10
388.094
 20
119.794
 30
0.0
 11
388.094
 21
105.795
 31
0.0
  0
LINE
  8
0
 62
     0
 10
388.094
 20
105.795
 30
0.0
 11
374.096
 21
105.795
 31
0.0
  0
LINE
  8
0
 62
     0
 10
374.096
 20
105.795
 30
0.0
 11
374.096
 21
119.794
 31
0.0
  0
LINE
  8
0
 62
     0
 10
393.146
 20
119.794
 30
0.0
 11
407.144
 21
119.794
 31
0.0
  0
LINE
  8
0
 62
     0
 10
407.144
 20
119.794
 30
0.0
 11
407.144
 21
105.795
 31
0.0
  0
LINE
  8
0
 62
     0
 10
407.144
 20
105.795
 30
0.0
 11
393.146
 21
105.795
 31
0.0
  0
LINE
  8
0
 62
     0
 10
393.146
 20
105.795
 30
0.0
 11
393.146
 21
119.794
 31
0.0
  0
LINE
  8
0
 62
     0
 10
412.196
 20
119.794
 30
0.0
 11
426.194
 21
119.794
 31
0.0
  0
LINE
  8
0
 62
     0
 10
426.194
 20
119.794
 30
0.0
 11
426.194
 21
105.795
 31
0.0
  0
LINE
  8
0
 62
     0
 10
426.194
 20
105.795
 30
0.0
 11
412.196
 21
105.795
 31
0.0
  0
LINE
  8
0
 62
     0
 10
412.196
 20
105.795
 30
0.0
 11
412.196
 21
119.794
 31
0.0
  0
LINE
  8
0
 62
     0
 10
202.645
 20
121.7
 30
0.0
 11
216.644
 21
121.7
 31
0.0
  0
LINE
  8
0
 62
     0
 10
216.644
 20
121.7
 30
0.0
 11
216.644
 21
107.699
 31
0.0
  0
LINE
  8
0
 62
     0
 10
216.644
 20
107.699
 30
0.0
 11
202.645
 21
107.699
 31
0.0
  0
LINE
  8
0
 62
     0
 10
202.645
 20
107.699
 30
0.0
 11
202.645
 21
121.7
 31
0.0
  0
LINE
  8
0
 62
     0
 10
183.595
 20
124.557
 30
0.0
 11
197.594
 21
124.557
 31
0.0
  0
LINE
  8
0
 62
     0
 10
197.594
 20
124.557
 30
0.0
 11
197.594
 21
110.557
 31
0.0
  0
LINE
  8
0
 62
     0
 10
197.594
 20
110.557
 30
0.0
 11
183.595
 21
110.557
 31
0.0
  0
LINE
  8
0
 62
     0
 10
183.595
 20
110.557
 30
0.0
 11
183.595
 21
124.557
 31
0.0
  0
LINE
  8
0
 62
     0
 10
159.782
 20
129.319
 30
0.0
 11
173.782
 21
129.319
 31
0.0
  0
LINE
  8
0
 62
     0
 10
173.782
 20
129.319
 30
0.0
 11
173.782
 21
115.32
 31
0.0
  0
LINE
  8
0
 62
     0
 10
173.782
 20
115.32
 30
0.0
 11
159.782
 21
115.32
 31
0.0
  0
LINE
  8
0
 62
     0
 10
159.782
 20
115.32
 30
0.0
 11
159.782
 21
129.319
 31
0.0
  0
LINE
  8
0
 62
     0
 10
221.695
 20
138.844
 30
0.0
 11
235.694
 21
138.844
 31
0.0
  0
LINE
  8
0
 62
     0
 10
235.694
 20
138.844
 30
0.0
 11
235.694
 21
124.845
 31
0.0
  0
LINE
  8
0
 62
     0
 10
235.694
 20
124.845
 30
0.0
 11
221.695
 21
124.845
 31
0.0
  0
LINE
  8
0
 62
     0
 10
221.695
 20
124.845
 30
0.0
 11
221.695
 21
138.844
 31
0.0
  0
LINE
  8
0
 62
     0
 10
240.745
 20
138.844
 30
0.0
 11
254.744
 21
138.844
 31
0.0
  0
LINE
  8
0
 62
     0
 10
254.744
 20
138.844
 30
0.0
 11
254.744
 21
124.845
 31
0.0
  0
LINE
  8
0
 62
     0
 10
254.744
 20
124.845
 30
0.0
 11
240.745
 21
124.845
 31
0.0
  0
LINE
  8
0
 62
     0
 10
240.745
 20
124.845
 30
0.0
 11
240.745
 21
138.844
 31
0.0
  0
LINE
  8
0
 62
     0
 10
259.795
 20
138.844
 30
0.0
 11
273.794
 21
138.844
 31
0.0
  0
LINE
  8
0
 62
     0
 10
273.794
 20
138.844
 30
0.0
 11
273.794
 21
124.845
 31
0.0
  0
LINE
  8
0
 62
     0
 10
273.794
 20
124.845
 30
0.0
 11
259.795
 21
124.845
 31
0.0
  0
LINE
  8
0
 62
     0
 10
259.795
 20
124.845
 30
0.0
 11
259.795
 21
138.844
 31
0.0
  0
LINE
  8
0
 62
     0
 10
278.845
 20
138.844
 30
0.0
 11
292.844
 21
138.844
 31
0.0
  0
LINE
  8
0
 62
     0
 10
292.844
 20
138.844
 30
0.0
 11
292.844
 21
124.845
 31
0.0
  0
LINE
  8
0
 62
     0
 10
292.844
 20
124.845
 30
0.0
 11
278.845
 21
124.845
 31
0.0
  0
LINE
  8
0
 62
     0
 10
278.845
 20
124.845
 30
0.0
 11
278.845
 21
138.844
 31
0.0
  0
LINE
  8
0
 62
     0
 10
297.895
 20
138.844
 30
0.0
 11
311.894
 21
138.844
 31
0.0
  0
LINE
  8
0
 62
     0
 10
311.894
 20
138.844
 30
0.0
 11
311.894
 21
124.845
 31
0.0
  0
LINE
  8
0
 62
     0
 10
311.894
 20
124.845
 30
0.0
 11
297.895
 21
124.845
 31
0.0
  0
LINE
  8
0
 62
     0
 10
297.895
 20
124.845
 30
0.0
 11
297.895
 21
138.844
 31
0.0
  0
LINE
  8
0
 62
     0
 10
316.945
 20
138.844
 30
0.0
 11
330.944
 21
138.844
 31
0.0
  0
LINE
  8
0
 62
     0
 10
330.944
 20
138.844
 30
0.0
 11
330.944
 21
124.845
 31
0.0
  0
LINE
  8
0
 62
     0
 10
330.944
 20
124.845
 30
0.0
 11
316.945
 21
124.845
 31
0.0
  0
LINE
  8
0
 62
     0
 10
316.945
 20
124.845
 30
0.0
 11
316.945
 21
138.844
 31
0.0
  0
LINE
  8
0
 62
     0
 10
335.995
 20
138.844
 30
0.0
 11
349.994
 21
138.844
 31
0.0
  0
LINE
  8
0
 62
     0
 10
349.994
 20
138.844
 30
0.0
 11
349.994
 21
124.845
 31
0.0
  0
LINE
  8
0
 62
     0
 10
349.994
 20
124.845
 30
0.0
 11
335.995
 21
124.845
 31
0.0
  0
LINE
  8
0
 62
     0
 10
335.995
 20
124.845
 30
0.0
 11
335.995
 21
138.844
 31
0.0
  0
LINE
  8
0
 62
     0
 10
355.046
 20
138.844
 30
0.0
 11
369.044
 21
138.844
 31
0.0
  0
LINE
  8
0
 62
     0
 10
369.044
 20
138.844
 30
0.0
 11
369.044
 21
124.845
 31
0.0
  0
LINE
  8
0
 62
     0
 10
369.044
 20
124.845
 30
0.0
 11
355.046
 21
124.845
 31
0.0
  0
LINE
  8
0
 62
     0
 10
355.046
 20
124.845
 30
0.0
 11
355.046
 21
138.844
 31
0.0
  0
LINE
  8
0
 62
     0
 10
374.096
 20
138.844
 30
0.0
 11
388.094
 21
138.844
 31
0.0
  0
LINE
  8
0
 62
     0
 10
388.094
 20
138.844
 30
0.0
 11
388.094
 21
124.845
 31
0.0
  0
LINE
  8
0
 62
     0
 10
388.094
 20
124.845
 30
0.0
 11
374.096
 21
124.845
 31
0.0
  0
LINE
  8
0
 62
     0
 10
374.096
 20
124.845
 30
0.0
 11
374.096
 21
138.844
 31
0.0
  0
LINE
  8
0
 62
     0
 10
393.146
 20
138.844
 30
0.0
 11
407.144
 21
138.844
 31
0.0
  0
LINE
  8
0
 62
     0
 10
407.144
 20
138.844
 30
0.0
 11
407.144
 21
124.845
 31
0.0
  0
LINE
  8
0
 62
     0
 10
407.144
 20
124.845
 30
0.0
 11
393.146
 21
124.845
 31
0.0
  0
LINE
  8
0
 62
     0
 10
393.146
 20
124.845
 30
0.0
 11
393.146
 21
138.844
 31
0.0
  0
LINE
  8
0
 62
     0
 10
412.196
 20
138.844
 30
0.0
 11
426.194
 21
138.844
 31
0.0
  0
LINE
  8
0
 62
     0
 10
426.194
 20
138.844
 30
0.0
 11
426.194
 21
124.845
 31
0.0
  0
LINE
  8
0
 62
     0
 10
426.194
 20
124.845
 30
0.0
 11
412.196
 21
124.845
 31
0.0
  0
LINE
  8
0
 62
     0
 10
412.196
 20
124.845
 30
0.0
 11
412.196
 21
138.844
 31
0.0
  0
LINE
  8
0
 62
     0
 10
202.645
 20
140.75
 30
0.0
 11
216.644
 21
140.75
 31
0.0
  0
LINE
  8
0
 62
     0
 10
216.644
 20
140.75
 30
0.0
 11
216.644
 21
126.749
 31
0.0
  0
LINE
  8
0
 62
     0
 10
216.644
 20
126.749
 30
0.0
 11
202.645
 21
126.749
 31
0.0
  0
LINE
  8
0
 62
     0
 10
202.645
 20
126.749
 30
0.0
 11
202.645
 21
140.75
 31
0.0
  0
LINE
  8
0
 62
     0
 10
183.595
 20
143.607
 30
0.0
 11
197.594
 21
143.607
 31
0.0
  0
LINE
  8
0
 62
     0
 10
197.594
 20
143.607
 30
0.0
 11
197.594
 21
129.607
 31
0.0
  0
LINE
  8
0
 62
     0
 10
197.594
 20
129.607
 30
0.0
 11
183.595
 21
129.607
 31
0.0
  0
LINE
  8
0
 62
     0
 10
183.595
 20
129.607
 30
0.0
 11
183.595
 21
143.607
 31
0.0
  0
LINE
  8
0
 62
     0
 10
159.782
 20
148.369
 30
0.0
 11
173.782
 21
148.369
 31
0.0
  0
LINE
  8
0
 62
     0
 10
173.782
 20
148.369
 30
0.0
 11
173.782
 21
134.37
 31
0.0
  0
LINE
  8
0
 62
     0
 10
173.782
 20
134.37
 30
0.0
 11
159.782
 21
134.37
 31
0.0
  0
LINE
  8
0
 62
     0
 10
159.782
 20
134.37
 30
0.0
 11
159.782
 21
148.369
 31
0.0
  0
ENDSEC
  0
EOF
